<?xml version="1.0" encoding="utf-8"?>
<svg viewBox="0 0 210.0072 148.0058" xmlns="http://www.w3.org/2000/svg">
  <g style="fill: rgb(245, 245, 245); fill-opacity: 0; stroke: rgb(245, 245, 245); stroke-width: 0.15; stroke-opacity: 1; stroke-linecap: round; stroke-linejoin: round;" transform="matrix(19.927658081054688, 0, 0, 19.731931686401367, -312.7537841796875, -293.8813171386719)">
    <path d="M18.2250 19.8500 L18.2250 17.4500 "/>
    <path d="M23.1250 20.1000 L23.1250 20.4500 "/>
    <path d="M20.3250 21.1500 L18.2250 19.8500 "/>
    <path d="M23.1250 19.7500 L20.5750 21.3000 "/>
    <path d="M18.2250 17.4500 L20.6750 15.7000 "/>
    <path d="M20.5750 21.0000 L20.3250 21.1500 "/>
    <path d="M22.8750 19.6000 L23.1250 19.4500 "/>
    <path d="M23.1250 20.4500 L21.1750 21.6500 "/>
    <path d="M23.1250 19.4500 L23.1250 17.5000 "/>
    <path d="M23.1250 17.5000 L22.1750 16.8000 "/>
    <path d="M20.6750 15.7000 L21.9750 16.6500 "/>
  </g>
  <g style="fill: rgb(245, 245, 245); fill-opacity: 1; stroke: rgb(245, 245, 245); stroke-width: 0.15; stroke-opacity: 1; stroke-linecap: round; stroke-linejoin: round;" transform="matrix(19.927658081054688, 0, 0, 19.731931686401367, -312.7537841796875, -293.8813171386719)">
    <path style="fill:#EEEEEE; fill-opacity:1.0000; &#10;stroke:#EEEEEE; stroke-width:0.1500; stroke-opacity:1; &#10;stroke-linecap:round; stroke-linejoin:round;fill-rule:evenodd;" d="M 22.8750,17.6000 22.8750,19.6000 21.9750,20.2000 21.9750,18.0000 20.6750,17.1000 19.6750,17.9000 21.5750,19.1500 21.5750,20.1000 19.2750,18.7000 19.2750,19.2000 21.3750,20.5000 20.5750,21.0000 18.4750,19.7000 18.4750,17.6000 20.6750,16.0000 Z"/>
  </g>
  <g style="fill: rgb(245, 245, 245); fill-opacity: 0; stroke: rgb(245, 245, 245); stroke-width: 0.15; stroke-opacity: 1; stroke-linecap: round; stroke-linejoin: round;" transform="matrix(19.927658081054688, 0, 0, 19.731931686401367, -312.7537841796875, -293.8813171386719)">
    <path d="M20.5750 21.3000 L20.8750 21.4500 "/>
    <path d="M20.8750 21.4500 L23.1250 20.1000 "/>
    <g/>
    <g/>
    <g/>
  </g>
</svg>